<?xml version="1.0" encoding="UTF-8" standalone="no"?>
<!-- Created with Inkscape (http://www.inkscape.org/) -->

<svg
   xmlns:dc="http://purl.org/dc/elements/1.1/"
   xmlns:cc="http://creativecommons.org/ns#"
   xmlns:rdf="http://www.w3.org/1999/02/22-rdf-syntax-ns#"
   xmlns:svg="http://www.w3.org/2000/svg"
   xmlns="http://www.w3.org/2000/svg"
   xmlns:sodipodi="http://sodipodi.sourceforge.net/DTD/sodipodi-0.dtd"
   xmlns:inkscape="http://www.inkscape.org/namespaces/inkscape"
   width="100"
   height="100"
   id="svg2"
   version="1.1"
   inkscape:version="0.47 r22583"
   sodipodi:docname="clock-face.svg">
  <defs
     id="defs4">
    <inkscape:perspective
       sodipodi:type="inkscape:persp3d"
       inkscape:vp_x="0 : 526.18109 : 1"
       inkscape:vp_y="0 : 1000 : 0"
       inkscape:vp_z="744.09448 : 526.18109 : 1"
       inkscape:persp3d-origin="372.04724 : 350.78739 : 1"
       id="perspective10" />
    <inkscape:perspective
       id="perspective3607"
       inkscape:persp3d-origin="0.5 : 0.33333333 : 1"
       inkscape:vp_z="1 : 0.5 : 1"
       inkscape:vp_y="0 : 1000 : 0"
       inkscape:vp_x="0 : 0.5 : 1"
       sodipodi:type="inkscape:persp3d" />
    <filter
       id="filter3791"
       inkscape:label="Drop shadow"
       width="1.5"
       height="1.5"
       x="-.25"
       y="-.25">
      <feGaussianBlur
         id="feGaussianBlur3793"
         in="SourceAlpha"
         stdDeviation="1,000000"
         result="blur" />
      <feColorMatrix
         id="feColorMatrix3795"
         result="bluralpha"
         type="matrix"
         values="1 0 0 0 0 0 1 0 0 0 0 0 1 0 0 0 0 0 0,400000 0 " />
      <feOffset
         id="feOffset3797"
         in="bluralpha"
         dx="0,000000"
         dy="2,000000"
         result="offsetBlur" />
      <feMerge
         id="feMerge3799">
        <feMergeNode
           id="feMergeNode3801"
           in="offsetBlur" />
        <feMergeNode
           id="feMergeNode3803"
           in="SourceGraphic" />
      </feMerge>
    </filter>
    <filter
       id="filter3807"
       inkscape:label="Drop shadow"
       width="1.5"
       height="1.5"
       x="-.25"
       y="-.25">
      <feGaussianBlur
         id="feGaussianBlur3809"
         in="SourceAlpha"
         stdDeviation="1,000000"
         result="blur" />
      <feColorMatrix
         id="feColorMatrix3811"
         result="bluralpha"
         type="matrix"
         values="1 0 0 0 0 0 1 0 0 0 0 0 1 0 0 0 0 0 0,400000 0 " />
      <feOffset
         id="feOffset3813"
         in="bluralpha"
         dx="0,000000"
         dy="2,000000"
         result="offsetBlur" />
      <feMerge
         id="feMerge3815">
        <feMergeNode
           id="feMergeNode3817"
           in="offsetBlur" />
        <feMergeNode
           id="feMergeNode3819"
           in="SourceGraphic" />
      </feMerge>
    </filter>
    <inkscape:perspective
       id="perspective3832"
       inkscape:persp3d-origin="0.5 : 0.33333333 : 1"
       inkscape:vp_z="1 : 0.5 : 1"
       inkscape:vp_y="0 : 1000 : 0"
       inkscape:vp_x="0 : 0.5 : 1"
       sodipodi:type="inkscape:persp3d" />
    <inkscape:perspective
       id="perspective3855"
       inkscape:persp3d-origin="0.5 : 0.33333333 : 1"
       inkscape:vp_z="1 : 0.5 : 1"
       inkscape:vp_y="0 : 1000 : 0"
       inkscape:vp_x="0 : 0.5 : 1"
       sodipodi:type="inkscape:persp3d" />
    <filter
       color-interpolation-filters="sRGB"
       id="filter3807-5"
       inkscape:label="Drop shadow"
       width="1.5"
       height="1.5"
       x="-0.25"
       y="-0.25">
      <feGaussianBlur
         id="feGaussianBlur3809-7"
         in="SourceAlpha"
         stdDeviation="1,000000"
         result="blur" />
      <feColorMatrix
         id="feColorMatrix3811-6"
         result="bluralpha"
         type="matrix"
         values="1 0 0 0 0 0 1 0 0 0 0 0 1 0 0 0 0 0 0,400000 0 " />
      <feOffset
         id="feOffset3813-9"
         in="bluralpha"
         dx="0,000000"
         dy="2,000000"
         result="offsetBlur" />
      <feMerge
         id="feMerge3815-5">
        <feMergeNode
           id="feMergeNode3817-1"
           in="offsetBlur" />
        <feMergeNode
           id="feMergeNode3819-1"
           in="SourceGraphic" />
      </feMerge>
    </filter>
    <inkscape:perspective
       id="perspective3625"
       inkscape:persp3d-origin="0.5 : 0.33333333 : 1"
       inkscape:vp_z="1 : 0.5 : 1"
       inkscape:vp_y="0 : 1000 : 0"
       inkscape:vp_x="0 : 0.5 : 1"
       sodipodi:type="inkscape:persp3d" />
    <filter
       inkscape:collect="always"
       id="filter3647">
      <feGaussianBlur
         inkscape:collect="always"
         stdDeviation="1.2000044"
         id="feGaussianBlur3649" />
    </filter>
    <inkscape:perspective
       id="perspective3659"
       inkscape:persp3d-origin="0.5 : 0.33333333 : 1"
       inkscape:vp_z="1 : 0.5 : 1"
       inkscape:vp_y="0 : 1000 : 0"
       inkscape:vp_x="0 : 0.5 : 1"
       sodipodi:type="inkscape:persp3d" />
    <filter
       inkscape:collect="always"
       id="filter3686">
      <feGaussianBlur
         inkscape:collect="always"
         stdDeviation="0.9"
         id="feGaussianBlur3688" />
    </filter>
    <inkscape:perspective
       id="perspective3681"
       inkscape:persp3d-origin="0.5 : 0.33333333 : 1"
       inkscape:vp_z="1 : 0.5 : 1"
       inkscape:vp_y="0 : 1000 : 0"
       inkscape:vp_x="0 : 0.5 : 1"
       sodipodi:type="inkscape:persp3d" />
    <inkscape:perspective
       id="perspective3726"
       inkscape:persp3d-origin="0.5 : 0.33333333 : 1"
       inkscape:vp_z="1 : 0.5 : 1"
       inkscape:vp_y="0 : 1000 : 0"
       inkscape:vp_x="0 : 0.5 : 1"
       sodipodi:type="inkscape:persp3d" />
    <inkscape:perspective
       id="perspective3748"
       inkscape:persp3d-origin="0.5 : 0.33333333 : 1"
       inkscape:vp_z="1 : 0.5 : 1"
       inkscape:vp_y="0 : 1000 : 0"
       inkscape:vp_x="0 : 0.5 : 1"
       sodipodi:type="inkscape:persp3d" />
  </defs>
  <sodipodi:namedview
     id="base"
     pagecolor="#ffffff"
     bordercolor="#666666"
     borderopacity="1.0"
     inkscape:pageopacity="0.0"
     inkscape:pageshadow="2"
     inkscape:zoom="4.39"
     inkscape:cx="40.107387"
     inkscape:cy="52.590932"
     inkscape:document-units="px"
     inkscape:current-layer="layer2"
     showgrid="true"
     inkscape:window-width="1023"
     inkscape:window-height="669"
     inkscape:window-x="157"
     inkscape:window-y="34"
     inkscape:window-maximized="0">
    <inkscape:grid
       type="xygrid"
       id="grid2816"
       empspacing="5"
       visible="true"
       enabled="true"
       snapvisiblegridlinesonly="true"
       spacingx="0.5px"
       spacingy="0.5px" />
  </sodipodi:namedview>
  <metadata
     id="metadata7">
    <rdf:RDF>
      <cc:Work
         rdf:about="">
        <dc:format>image/svg+xml</dc:format>
        <dc:type
           rdf:resource="http://purl.org/dc/dcmitype/StillImage" />
        <dc:title />
      </cc:Work>
    </rdf:RDF>
  </metadata>
  <g
     inkscape:groupmode="layer"
     id="layer2"
     inkscape:label="Livello0"
     style="display:inline">
    <path
       style="opacity:0.5;fill:#ffffff;fill-opacity:1;stroke:none"
       d="M 67.5,47.5 C 67.5,68.210678 54.068542,85 37.5,85 20.931458,85 7.5,68.210678 7.5,47.5 7.5,26.789322 20.931458,10 37.5,10 c 16.568542,0 30,16.789322 30,37.5 z"
       id="path3592"
       transform="matrix(1.3333333,0,0,1.0666667,1.25e-6,-0.66666825)" />
  </g>
  <g
     inkscape:label="Livello 1"
     inkscape:groupmode="layer"
     id="layer1"
     transform="translate(0,-952.36218)"
     style="display:none">
    <path
       style="opacity:0.7;fill:#000000;fill-opacity:1;stroke:none;filter:url(#filter3686)"
       d="m 50,957.36208 c -24.852814,0 -45,20.14719 -45,45.00022 0,24.8528 20.147186,45 45,45 24.852814,0 45,-20.1472 45,-45 0,-24.85303 -20.147186,-45.00022 -45,-45.00022 z m 0,5 c 22.091389,0 40,17.90861 40,40.00022 0,22.0914 -17.908611,40 -40,40 -22.091389,0 -40,-17.9086 -40,-40 0,-22.09161 17.908611,-40.00022 40,-40.00022 z"
       id="path2818"
       transform="translate(0,-1e-5)" />
    <path
       style="opacity:0.7;fill:#000000;fill-opacity:1;stroke:none;display:inline;filter:url(#filter3647)"
       d="m 80,1002.4623 c 0,16.5685 -13.431457,30 -30,30 -16.568542,0 -30.000001,-13.4315 -30.000001,-30 0,-16.5696 13.431459,-30.00106 30.000001,-30.00106 16.568543,0 30,13.43146 30,30.00106 z"
       id="path3805"
       transform="translate(0,-1e-5)" />
    <path
       style="opacity:0.7;fill:#000000;fill-opacity:1;stroke:none;display:inline"
       d="m 50,957.36215 c -24.852814,0 -45,20.14719 -45,45.00005 0,24.8528 20.147186,45 45,45 24.852814,0 45,-20.1472 45,-45 0,-24.85286 -20.147186,-45.00005 -45,-45.00005 z m 0,5 c 22.091389,0 40,17.90861 40,40.00005 0,22.0914 -17.908611,40 -40,40 -22.091389,0 -40,-17.9086 -40,-40 0,-22.09144 17.908611,-40.00005 40,-40.00005 z"
       id="path2818-6" />
  </g>
  <g
     inkscape:groupmode="layer"
     id="layer3"
     inkscape:label="Livello2"
     style="display:none">
    <path
       style="opacity:0.7;fill:#000000;fill-opacity:1;stroke:none;display:inline"
       d="m 80,50.00003 c 0,16.5685 -13.431458,30 -30,30 -16.568542,0 -30,-13.4315 -30,-30 0,-16.5686 13.431458,-30.00006 30,-30.00006 16.568542,0 30,13.43146 30,30.00006 z"
       id="path3805-1" />
  </g>
  <g
     inkscape:groupmode="layer"
     id="layer4"
     inkscape:label="Livello3"
     style="display:none">
    <path
       style="opacity:0.7;fill:#4d4d4d;fill-opacity:1;stroke:none;display:inline"
       d="M 80,50.00003 C 52.5,50 45,50 20,50.00003 20,33.43143 33.431458,19.99997 50,19.99997 c 16.568542,0 30,13.43146 30,30.00006 z"
       id="path3805-1-0"
       sodipodi:nodetypes="ccsc" />
    <path
       style="opacity:0.7;fill:#4d4d4d;fill-opacity:1;stroke:none;display:inline"
       d="M 50,5 C 25.147186,5 5,25.14719 5,50.00002 17.5,50 80,50 95,50.00002 95,25.14719 74.852814,5 50,5 z m 0,5 C 72.091389,10 90,27.90861 90,50.00002 102.5,50 -5,50 10,50.00002 10,27.90861 27.908611,10 50,10 z"
       id="path2818-6-7"
       sodipodi:nodetypes="cccccccc" />
  </g>
</svg>
