/* XPM */
static char *clocky[] = {
/* columns rows colors chars-per-pixel */
"48 48 63 1 ",
"  c #0B0B0B",
". c #141414",
"X c #1C1C1C",
"o c #242424",
"O c #2D2D2D",
"+ c #323232",
"@ c #3C3C3C",
"# c #444444",
"$ c #4C4C4C",
"% c #525252",
"& c #5B5B5B",
"* c #5F6060",
"= c #636464",
"- c #676869",
"; c #6A6C6C",
": c #6F7071",
"> c #747575",
", c #757778",
"< c #777979",
"1 c #7C7C7C",
"2 c #7E8081",
"3 c #838484",
"4 c #878889",
"5 c #8B8C8C",
"6 c #8F9191",
"7 c #939494",
"8 c #979798",
"9 c #979898",
"0 c #9B9B9C",
"q c #9F9FA0",
"w c #9FA0A1",
"e c #A3A4A4",
"r c #A6A7A8",
"t c #A7A8A8",
"y c #ABACAC",
"u c #AEAFB0",
"i c #AFB0B1",
"p c #B2B3B3",
"a c #B5B7B8",
"s c #B7B9B9",
"d c #BBBCBC",
"f c #BDBFC0",
"g c #BFC0C1",
"h c #C3C4C4",
"j c #C6C7C8",
"k c #C7C8C9",
"l c #CBCCCC",
"z c #CCCFD0",
"x c #CED1D1",
"c c #D3D5D5",
"v c #D5D7D8",
"b c #D7D9D9",
"n c #DADCDD",
"m c #DCDFE0",
"M c #DEE1E2",
"N c #E1E5E6",
"B c #E3E7E8",
"V c #E5EAEB",
"C c #E8EDEF",
"Z c #E9EFF0",
"A c #EBF1F2",
"S c #F0F6F8",
"D c None",
/* pixels */
"DDDDDDDDDDDDDDDDDDDDDDDDDDDDDDDDDDDDDDDDDDDDDDDD",
"DDDDDDDDDDDDDDDDDD++++OOO+O+++DDDDDDDDDDDDDDDDDD",
"DDDDDDDDDDDDDDD+OOoooo+@++OXooO++DDDDDDDDDDDDDDD",
"DDDDDDDDDDDDD++oo@&20yppspy01%@Xo++DDDDDDDDDDDDD",
"DDDDDDDDDDD++oo%5alkkhd77dhhjlp5$ooO+DDDDDDDDDDD",
"DDDDDDDDDD++o%0hlgtpqiq**qpqithkh8#oO+DDDDDDDDDD",
"DDDDDDDDD+O+3ddd8g7hyhg11ghyh7d8ddd1Oo+DDDDDDDDD",
"DDDDDDDD+O#qkh%1eghxccp08yxcchhe1%hkq@oODDDDDDDD",
"DDDDDDD+o%ixp04#hcbvvc5:03lbbcch#40pxy#o+DDDDDDD",
"DDDDDD+O%pl0gtg1iigbbnt;>tvbbbj88htd0li#o+DDDDDD",
"DDDDD+O#igsiycc6740nbnceilbnnbk;gvcyidgt+o+DDDDD",
"DDDD+O+0ld6gxvbewwemnnMidmnnnnv5jvvxg5gl5OOODDDD",
"DDDD+O:lyqhlcvbxxxcnnMNtpmmmnnncvbvvljqyl=X+DDDD",
"DDDOO#syeylbbbbnnMMMMMN0yNNmMmnnnnbbvlyeyp+OODDD",
"DDD+O3x,+3gkhlnnMMMMNNN8eNNMNmmmnnbkgj4+,l>X+DDD",
"DDOO#say83>-73vmMMMMNNB70BNNNNMmmnbu2647yap+OODD",
"DDOO>zf0gv2%w,vMMMMVCMZ29CMVMVMMMMnt3svg0gl&o+DD",
"DDO+wg0fgvgurgmMMMMVMCZ25ZZMCMMMnxvspkccg9g7X+DD",
"DDO$skismnbnmmMNBMVVMZA,2ZVVVCMgulmmnvvcsikp++DD",
"DOO*lerzvbvnmmMMMBVVCZA:2AZZVg6wcMmnnbvvleek#oOD",
"DO+<zgsgvbnnmmMNBVVCCZZ*2SZg,:gMNMMmnbvvlpgl&oOD",
"D++4g7wcvbnnmMMNBVVCZZZ*-g:#2mZMNMMmnnbbxq7h>o+D",
"DOO6gaszw7wmmMNNBBCCZAV$X+%gZZVBNNMmnu7elppl1oOD",
"D+O7a@@222-bmMNNBVVZZM7XX2NZZVVBNMMmnd425+@p3o+D",
"D+O7ketjr2rmmmMNBVVVAw+@2VAAZVVBNNMMbt7qhteh1o+D",
"DO+5j9qxmgmmmMNNBVVZAMg*,AZZZVBBNMMnnvxvce9h>oOD",
"DOO2lhglvbbmmmMNBVVZZAV22SZZVVBBNMMMnbbvlhhx=o+D",
"DOO-lq0kvbbnmmMMBBVVVZZZSAZVVVBBMMMnnbbvh00l$ooD",
"DoO%glpdvbbNmmMMMBBBVVZVVZVVVBBNMMnmnbvcgpla++oD",
"DDO@tg9szbgggmMmMBBBVBVVVVVBBBNNMMMl8gvcs8g8o+DD",
"DDO+1lgegn0-,zmmMNBBBBBBVBBBBNMMMmv6*ebgegl-oODD",
"DDoO%gptrw222zmmmMMMNBBBBBNNNMMMnnxt3q8qtps@+oDD",
"DDX++7x2+1jshbnnmMMNNNNNNNNNMMmMnnbncl1+1l1o+XDD",
"DDDo+%dq0ulbbbbnmmmmmmMNMMmmMMMnnbbvclp0qd#OoDDD",
"DDDX++3xy0hlvvbxdicmmmmmMmmmmbasxbbvll0yl>OOXDDD",
"DDDDo+#rkg7gvvbxe1cnnmmmnmnmnl,3pvcvd7glq+OoDDDD",
"DDDD.O+&ddppycvx5anbnnxqexnnbx840bcippdp#OO.DDDD",
"DDDDDXO+-hl7dujydcbbbny-1snvvvgptjyd8ls&O+XDDDDD",
"DDDDDDX++;dxi06#gcbccbd33dvvvvvg#69pls&OOXDDDDDD",
"DDDDDDDo++=pkg$>yhkcccchhvvcckgy<$gkp%OOoDDDDDDD",
"DDDDDDDDoO+$0jia7d8hikh11hhph8g7sih7#O+oDDDDDDDD",
"DDDDDDDDDX++@>ilhgep0pq==ep0pegkhy-+OOXDDDDDDDDD",
"DDDDDDDDDDXoO+#>thxhhdp55pdhhxje:@O+o.DDDDDDDDDD",
"DDDDDDDDDDD XOO+@&2qpghlkhdi01%+OO+X DDDDDDDDDDD",
"DDDDDDDDDDDDD.XO++++#$$&&%##+O++OX.DDDDDDDDDDDDD",
"DDDDDDDDDDDDDDD .oo++O++OO+O+oXX DDDDDDDDDDDDDDD",
"DDDDDDDDDDDDDDDDDD ..XXooXX.. DDDDDDDDDDDDDDDDDD",
"DDDDDDDDDDDDDDDDDDDDDDDDDDDDDDDDDDDDDDDDDDDDDDDD"
};
